<?xml version="1.0" encoding="UTF-8"?>
<svg xmlns="http://www.w3.org/2000/svg" xmlns:xlink="http://www.w3.org/1999/xlink" version="1.1" x="0px" y="0px" width="1062.5" height="375" viewBox="0, 0, 1062.5, 375">
    <g id="existsolutions">
        <path d="M163.276,63.003 C163.276,73.303 154.926,81.653 144.626,81.653 C134.329,81.653 125.979,73.303 125.979,63.003 C125.979,52.705 134.329,44.355 144.626,44.355 C154.926,44.355 163.276,52.705 163.276,63.003" fill="#737577"/>
        <path d="M189.487,57.458 C189.487,62.471 185.425,66.531 180.412,66.531 C175.402,66.531 171.34,62.471 171.34,57.458 C171.34,52.448 175.402,48.386 180.412,48.386 C185.425,48.386 189.487,52.448 189.487,57.458" fill="#858789"/>
        <path d="M184.446,90.222 C184.446,96.623 179.256,101.813 172.852,101.813 C166.451,101.813 161.259,96.623 161.259,90.222 C161.259,83.818 166.451,78.628 172.852,78.628 C179.256,78.628 184.446,83.818 184.446,90.222" fill="#858789"/>
        <path d="M119.929,143.65 C119.929,151.721 113.384,158.266 105.313,158.266 C97.239,158.266 90.695,151.721 90.695,143.65 C90.695,135.576 97.239,129.033 105.313,129.033 C113.384,129.033 119.929,135.576 119.929,143.65" fill="#858789"/>
        <path d="M94.971,42.802 C94.971,38.625 98.354,35.241 102.529,35.241 C106.707,35.241 110.091,38.625 110.091,42.802 C110.091,46.977 106.707,50.361 102.529,50.361 C98.354,50.361 94.971,46.977 94.971,42.802" fill="#858789"/>
        <path d="M117.912,107.863 C117.912,110.647 115.656,112.902 112.874,112.902 C110.09,112.902 107.832,110.647 107.832,107.863 C107.832,105.077 110.09,102.822 112.874,102.822 C115.656,102.822 117.912,105.077 117.912,107.863" fill="#858789"/>
        <path d="M230.051,156.008 C230.051,159.904 226.892,163.064 222.995,163.064 C219.096,163.064 215.937,159.904 215.937,156.008 C215.937,152.109 219.096,148.95 222.995,148.95 C226.892,148.95 230.051,152.109 230.051,156.008" fill="#858789"/>
        <path d="M20.099,81.846 L72.279,81.846 C70.435,74.658 61.031,64.053 44.99,62.796 C29.317,63.513 21.574,74.477 20.099,81.846 M0,90.652 C0.185,66.211 19.73,45.721 44.99,45.721 C68.96,45.721 87.951,63.154 89.426,87.417 L89.426,88.315 C89.426,88.677 89.426,89.576 89.243,89.934 C88.69,94.248 84.817,97.124 79.655,97.124 L21.02,97.124 C21.942,101.257 23.971,105.931 27.289,108.984 C31.161,113.298 38.536,116.533 44.99,117.073 C51.629,117.612 59.556,115.993 64.166,112.58 C68.039,108.626 75.598,109.164 77.995,112.041 C80.391,114.558 82.235,119.948 77.995,123.723 C68.96,131.812 58.081,135.585 44.99,135.585 C19.73,135.406 0.185,115.096 0,90.652" fill="#4D4C4E"/>
        <path d="M254.402,55.786 L254.402,125.878 C254.402,131.272 250.161,135.586 244.446,135.586 C238.914,135.586 234.489,131.272 234.489,125.878 L234.489,55.786 C234.489,50.033 238.914,45.901 244.446,45.901 C250.161,45.901 254.402,50.033 254.402,55.786" fill="#4D4C4E"/>
        <path d="M260.843,109.883 C264.161,105.571 270.615,105.031 274.672,108.448 C279.465,112.4 287.763,116.533 294.954,116.355 C299.931,116.355 304.542,114.736 307.491,112.939 C310.073,110.784 310.811,108.984 310.811,107.546 C310.811,106.648 310.626,106.289 310.258,105.749 C310.073,105.21 309.335,104.491 307.86,103.594 C305.279,101.796 299.748,99.819 293.11,98.561 L292.927,98.561 C287.21,97.483 281.678,96.045 276.884,93.889 C271.906,91.553 267.482,88.315 264.161,83.464 C262.134,80.229 261.028,76.274 261.028,72.141 C261.028,63.871 265.822,56.863 271.906,52.37 C278.359,48.056 286.103,45.72 294.585,45.72 C307.308,45.72 316.343,51.653 322.243,55.605 C326.668,58.481 327.959,64.411 325.193,68.906 C322.243,73.22 316.158,74.478 311.548,71.42 C305.648,67.646 300.485,64.773 294.585,64.773 C289.975,64.773 285.919,66.21 283.523,68.008 C281.125,69.624 280.573,71.243 280.573,72.141 C280.573,72.859 280.573,73.039 280.941,73.579 C281.125,73.938 281.678,74.658 282.969,75.376 C285.366,76.994 290.16,78.61 296.429,79.69 L296.614,79.868 L296.798,79.868 C302.883,80.948 308.599,82.565 313.945,85.08 C318.924,87.239 323.903,90.651 327.036,95.686 C329.249,99.28 330.54,103.413 330.54,107.546 C330.54,116.355 325.561,123.723 318.924,128.396 C312.286,132.888 303.989,135.586 294.954,135.586 C280.573,135.405 269.509,128.935 262.134,123.184 C258.078,119.949 257.524,113.838 260.843,109.883" fill="#4D4C4E"/>
        <path d="M379.612,55.605 C379.612,60.998 374.818,65.49 369.286,65.49 L364.677,65.49 L364.677,115.634 C370.392,115.634 374.818,120.129 374.818,125.7 C374.818,131.271 370.392,135.585 364.677,135.585 C353.43,135.585 344.211,126.599 344.211,115.634 L344.211,65.49 L338.863,65.49 C333.147,65.49 328.722,60.998 328.722,55.605 C328.722,50.034 333.147,45.72 338.863,45.72 L344.211,45.72 L344.211,19.66 C344.211,14.089 348.82,9.775 354.535,9.775 C360.252,9.775 364.677,14.089 364.677,19.66 L364.677,45.72 L369.286,45.72 C374.818,45.72 379.612,50.034 379.612,55.605" fill="#4D4C4E"/>
        <path d="M170.332,112.903 C170.332,119.028 165.368,123.991 159.243,123.991 C153.119,123.991 148.154,119.028 148.154,112.903 C148.154,106.78 153.119,101.814 159.243,101.814 C165.368,101.814 170.332,106.78 170.332,112.903" fill="#4D4C4E"/>
        <path d="M199.565,135.08 C199.565,142.317 193.699,148.183 186.463,148.183 C179.224,148.183 173.356,142.317 173.356,135.08 C173.356,127.842 179.224,121.975 186.463,121.975 C193.699,121.975 199.565,127.842 199.565,135.08" fill="#4D4C4E"/>
        <path d="M114.89,22.177 C114.89,26.631 111.279,30.241 106.824,30.241 C102.37,30.241 98.76,26.631 98.76,22.177 C98.76,17.722 102.37,14.111 106.824,14.111 C111.279,14.111 114.89,17.722 114.89,22.177" fill="#4D4C4E"/>
        <path d="M91.704,157.258 C91.704,161.154 88.545,164.314 84.648,164.314 C80.749,164.314 77.59,161.154 77.59,157.258 C77.59,153.359 80.749,150.2 84.648,150.2 C88.545,150.2 91.704,153.359 91.704,157.258" fill="#4D4C4E"/>
        <path d="M181.423,36.794 C181.423,40.969 178.037,44.355 173.862,44.355 C169.684,44.355 166.301,40.969 166.301,36.794 C166.301,32.617 169.684,29.233 173.862,29.233 C178.037,29.233 181.423,32.617 181.423,36.794" fill="#4D4C4E"/>
        <path d="M134.043,36.794 C134.043,42.639 129.304,47.378 123.457,47.378 C117.612,47.378 112.873,42.639 112.873,36.794 C112.873,30.947 117.612,26.208 123.457,26.208 C129.304,26.208 134.043,30.947 134.043,36.794" fill="#F8B531"/>
        <path d="M120.937,59.475 C120.937,63.371 117.779,66.531 113.881,66.531 C109.982,66.531 106.824,63.371 106.824,59.475 C106.824,55.579 109.982,52.419 113.881,52.419 C117.779,52.419 120.937,55.579 120.937,59.475" fill="#F8B531"/>
        <path d="M380.363,109.883 C383.68,105.57 390.134,105.03 394.192,108.446 C398.985,112.4 407.282,116.533 414.474,116.354 C419.452,116.354 424.062,114.736 427.01,112.938 C429.594,110.783 430.332,108.984 430.332,107.546 C430.332,106.648 430.145,106.289 429.777,105.749 C429.594,105.21 428.855,104.491 427.379,103.593 C424.799,101.795 419.267,99.818 412.629,98.56 L412.445,98.56 C406.73,97.481 401.198,96.044 396.404,93.888 C391.425,91.551 387.002,88.315 383.68,83.463 C381.653,80.228 380.547,76.274 380.547,72.14 C380.547,63.871 385.34,56.863 391.425,52.369 C397.879,48.056 405.623,45.72 414.105,45.72 C426.828,45.72 435.862,51.651 441.762,55.605 C446.188,58.48 447.478,64.411 444.712,68.905 C441.762,73.219 435.678,74.476 431.068,71.42 C425.168,67.646 420.005,64.771 414.105,64.771 C409.495,64.771 405.439,66.21 403.042,68.006 C400.645,69.624 400.092,71.241 400.092,72.14 C400.092,72.859 400.092,73.038 400.46,73.578 C400.645,73.938 401.198,74.656 402.489,75.375 C404.885,76.993 409.679,78.61 415.949,79.689 L416.133,79.868 L416.318,79.868 C422.402,80.948 428.118,82.565 433.464,85.08 C438.444,87.238 443.422,90.651 446.557,95.685 C448.769,99.28 450.06,103.413 450.06,107.546 C450.06,116.354 445.08,123.723 438.444,128.396 C431.805,132.888 423.508,135.585 414.474,135.585 C400.092,135.405 389.029,128.934 381.653,123.184 C377.597,119.949 377.044,113.838 380.363,109.883" fill="#F8B531"/>
        <path d="M471.906,90.832 C471.906,98.561 474.303,104.851 478.545,109.882 C483.153,114.196 489.238,116.533 496.245,116.533 C502.698,116.533 508.598,114.196 513.208,109.882 C517.817,104.851 520.4,98.561 520.4,90.832 C520.4,83.462 517.817,76.993 513.208,72.14 C508.598,68.186 502.698,65.31 496.245,65.31 C489.238,65.31 483.153,68.186 478.545,72.14 C474.303,76.993 471.906,83.462 471.906,90.832 M464.531,122.465 C456.603,114.556 451.808,103.412 451.808,90.832 C451.808,78.611 456.603,68.006 464.531,59.38 C472.828,50.932 483.522,45.72 496.245,45.72 C508.415,45.72 519.477,50.932 527.037,59.38 C535.333,68.006 539.943,78.611 539.943,90.832 C539.943,103.412 535.333,114.556 527.037,122.465 C519.477,130.911 508.415,136.123 496.245,136.123 C483.522,136.123 472.828,130.911 464.531,122.465" fill="#F8B531"/>
        <path d="M555.561,9.774 C561.276,9.774 565.886,14.268 565.886,19.659 L565.886,125.699 C565.886,131.091 561.276,135.584 555.561,135.584 C550.028,135.584 545.419,131.091 545.419,125.699 L545.419,19.659 C545.419,14.268 550.028,9.774 555.561,9.774" fill="#F8B531"/>
        <path d="M609.01,135.584 C587.993,135.584 570.659,118.689 570.659,98.201 L570.659,55.246 C570.659,50.213 575.084,45.719 580.432,45.719 C585.963,45.719 590.204,50.213 590.204,55.246 L590.204,98.201 C590.204,108.446 598.502,116.533 609.01,116.533 C619.707,116.533 628.188,108.446 628.37,98.201 L628.37,55.246 C628.37,50.213 632.428,45.719 637.959,45.719 C643.122,45.719 647.917,50.213 647.917,55.246 L647.917,98.201 C647.917,118.689 630.216,135.584 609.01,135.584" fill="#F8B531"/>
        <path d="M702.768,55.605 C702.768,60.997 697.973,65.49 692.442,65.49 L687.832,65.49 L687.832,115.634 C693.548,115.634 697.973,120.128 697.973,125.699 C697.973,131.27 693.548,135.584 687.832,135.584 C676.584,135.584 667.365,126.598 667.365,115.634 L667.365,65.49 L662.018,65.49 C656.303,65.49 651.877,60.997 651.877,55.605 C651.877,50.033 656.303,45.72 662.018,45.72 L667.365,45.72 L667.365,19.659 C667.365,14.088 671.974,9.774 677.69,9.774 C683.408,9.774 687.832,14.088 687.832,19.659 L687.832,45.72 L692.442,45.72 C697.973,45.72 702.768,50.033 702.768,55.605" fill="#F8B531"/>
        <path d="M726.938,55.785 L726.938,125.878 C726.938,131.271 722.697,135.585 716.982,135.585 C711.449,135.585 707.025,131.271 707.025,125.878 L707.025,55.785 C707.025,50.032 711.449,45.9 716.982,45.9 C722.697,45.9 726.938,50.032 726.938,55.785" fill="#F8B531"/>
        <path d="M751.681,90.832 C751.681,98.561 754.078,104.851 758.319,109.882 C762.929,114.196 769.013,116.533 776.02,116.533 C782.473,116.533 788.374,114.196 792.983,109.882 C797.593,104.851 800.173,98.561 800.173,90.832 C800.173,83.462 797.593,76.993 792.983,72.14 C788.374,68.186 782.473,65.31 776.02,65.31 C769.013,65.31 762.929,68.186 758.319,72.14 C754.078,76.993 751.681,83.462 751.681,90.832 M744.306,122.465 C736.376,114.556 731.584,103.412 731.584,90.832 C731.584,78.611 736.376,68.006 744.306,59.38 C752.601,50.932 763.298,45.72 776.02,45.72 C788.188,45.72 799.253,50.932 806.811,59.38 C815.109,68.006 819.719,78.611 819.719,90.832 C819.719,103.412 815.109,114.556 806.811,122.465 C799.253,130.911 788.188,136.123 776.02,136.123 C763.298,136.123 752.601,130.911 744.306,122.465" fill="#F8B531"/>
        <path d="M900.956,83.104 L900.956,126.059 C900.956,131.27 896.715,135.584 891.369,135.584 C886.205,135.584 881.596,131.27 881.596,126.059 L881.596,83.104 C881.596,73.038 872.93,64.951 862.42,64.951 C852.094,64.951 843.981,73.038 843.981,83.104 L843.981,126.059 C843.981,126.598 843.981,127.138 843.612,127.856 C842.691,132.17 838.635,135.584 833.841,135.584 C828.31,135.584 824.069,131.27 824.069,126.059 L824.069,83.104 L824.069,55.245 C824.069,50.033 828.31,45.72 833.841,45.72 C837.713,45.72 841.215,47.876 842.875,51.291 C848.407,47.876 855.229,45.72 862.42,45.72 C883.807,45.72 900.956,62.794 900.956,83.104" fill="#F8B531"/>
        <path d="M907.72,109.883 C911.039,105.57 917.492,105.03 921.549,108.446 C926.343,112.4 934.64,116.533 941.832,116.354 C946.809,116.354 951.42,114.736 954.369,112.938 C956.95,110.783 957.689,108.984 957.689,107.546 C957.689,106.648 957.504,106.289 957.135,105.749 C956.95,105.21 956.213,104.491 954.738,103.593 C952.158,101.795 946.625,99.818 939.987,98.56 L939.804,98.56 C934.088,97.481 928.557,96.044 923.762,93.888 C918.784,91.551 914.359,88.315 911.039,83.463 C909.01,80.228 907.904,76.274 907.904,72.14 C907.904,63.871 912.699,56.863 918.784,52.369 C925.237,48.056 932.98,45.72 941.463,45.72 C954.185,45.72 963.219,51.651 969.12,55.605 C973.545,58.48 974.835,64.411 972.069,68.905 C969.12,73.219 963.036,74.476 958.425,71.42 C952.526,67.646 947.363,64.771 941.463,64.771 C936.853,64.771 932.798,66.21 930.4,68.006 C928.003,69.624 927.45,71.241 927.45,72.14 C927.45,72.859 927.45,73.038 927.819,73.578 C928.003,73.938 928.557,74.656 929.846,75.375 C932.243,76.993 937.038,78.61 943.308,79.689 L943.49,79.868 L943.677,79.868 C949.76,80.948 955.475,82.565 960.822,85.08 C965.802,87.238 970.78,90.651 973.914,95.685 C976.128,99.28 977.417,103.413 977.417,107.546 C977.417,116.354 972.438,123.723 965.802,128.396 C959.164,132.888 950.867,135.585 941.832,135.585 C927.45,135.405 916.387,128.934 909.01,123.184 C904.955,119.949 904.401,113.838 907.72,109.883" fill="#F8B531"/>
        <path d="M229.807,17.641 C229.807,21.816 226.423,25.2 222.248,25.2 C218.071,25.2 214.687,21.816 214.687,17.641 C214.687,13.464 218.071,10.08 222.248,10.08 C226.423,10.08 229.807,13.464 229.807,17.641" fill="#F8B531"/>
        <path d="M213.679,35.28 C213.679,43.075 207.36,49.394 199.568,49.394 C191.773,49.394 185.454,43.075 185.454,35.28 C185.454,27.488 191.773,21.169 199.568,21.169 C207.36,21.169 213.679,27.488 213.679,35.28" fill="#F8B531"/>
        <path d="M143.115,95.766 C143.115,101.333 138.601,105.846 133.035,105.846 C127.465,105.846 122.954,101.333 122.954,95.766 C122.954,90.198 127.465,85.686 133.035,85.686 C138.601,85.686 143.115,90.198 143.115,95.766" fill="#F8B531"/>
        <path d="M134.043,121.975 C134.043,126.987 129.98,131.047 124.97,131.047 C119.958,131.047 115.898,126.987 115.898,121.975 C115.898,116.965 119.958,112.902 124.97,112.902 C129.98,112.902 134.043,116.965 134.043,121.975" fill="#F8B531"/>
        <path d="M207.629,109.878 C207.629,114.89 203.569,118.95 198.557,118.95 C193.547,118.95 189.484,114.89 189.484,109.878 C189.484,104.868 193.547,100.805 198.557,100.805 C203.569,100.805 207.629,104.868 207.629,109.878" fill="#F8B531"/>
        <path d="M221.743,135.08 C221.743,139.534 218.132,143.144 213.679,143.144 C209.225,143.144 205.615,139.534 205.615,135.08 C205.615,130.627 209.225,127.017 213.679,127.017 C218.132,127.017 221.743,130.627 221.743,135.08" fill="#F8B531"/>
        <path d="M93.479,18.669 C93.479,21.453 91.22,23.708 88.438,23.708 C85.654,23.708 83.399,21.453 83.399,18.669 C83.399,15.885 85.654,13.628 88.438,13.628 C91.22,13.628 93.479,15.885 93.479,18.669" fill="#F8B531"/>
        <path d="M91.704,5.041 C91.704,7.825 89.448,10.08 86.663,10.08 C83.879,10.08 81.624,7.825 81.624,5.041 C81.624,2.255 83.879,0 86.663,0 C89.448,0 91.704,2.255 91.704,5.041" fill="#F8B531"/>
        <path d="M107.832,117.944 C107.832,121.284 105.124,123.992 101.784,123.992 C98.442,123.992 95.734,121.284 95.734,117.944 C95.734,114.602 98.442,111.894 101.784,111.894 C105.124,111.894 107.832,114.602 107.832,117.944" fill="#F8B531"/>
    </g>
    <defs/>
</svg>