<?xml version="1.0" encoding="UTF-8"?>
<!-- Created with Inkscape (http://www.inkscape.org/) -->
<svg xmlns="http://www.w3.org/2000/svg" xmlns:cc="http://creativecommons.org/ns#" xmlns:inkscape="http://www.inkscape.org/namespaces/inkscape" xmlns:svg="http://www.w3.org/2000/svg" xmlns:rdf="http://www.w3.org/1999/02/22-rdf-syntax-ns#" xmlns:sodipodi="http://sodipodi.sourceforge.net/DTD/sodipodi-0.dtd" xmlns:dc="http://purl.org/dc/elements/1.1/" width="147.38194" height="150.42268" id="svg4858" version="1.1" inkscape:version="0.48.2 r9819" sodipodi:docname="mybulb.svg">
    <defs id="defs4860"/>
    <sodipodi:namedview id="base" pagecolor="#000000" bordercolor="#666666" borderopacity="1.0" inkscape:pageopacity="0" inkscape:pageshadow="2" inkscape:zoom="4.2147896" inkscape:cx="73.995483" inkscape:cy="75.211332" inkscape:document-units="px" inkscape:current-layer="layer1" showgrid="false" inkscape:window-width="1440" inkscape:window-height="852" inkscape:window-x="0" inkscape:window-y="0" inkscape:window-maximized="1" fit-margin-top="0" fit-margin-left="0" fit-margin-right="0" fit-margin-bottom="0" inkscape:showpageshadow="false" showborder="false"/>
    <metadata id="metadata4863">
        <rdf:RDF>
            <cc:Work rdf:about="">
                <dc:format>image/svg+xml</dc:format>
                <dc:type rdf:resource="http://purl.org/dc/dcmitype/StillImage"/>
                <dc:title/>
            </cc:Work>
        </rdf:RDF>
    </metadata>
    <g inkscape:label="Layer 1" inkscape:groupmode="layer" id="layer1" transform="translate(-115.11549,-183.13682)">
        <g id="g5879" style="fill:#ffff00">
            <path style="fill:#ffff00" d="m 187.295,333.35716 c 0.21007,-0.0848 0.55382,-0.0848 0.76389,0 0.21006,0.0848 0.0382,0.15412 -0.38194,0.15412 -0.42014,0 -0.59201,-0.0694 -0.38195,-0.15412 z m -17.21638,-10.26283 -0.58207,-0.68749 0.68749,0.58208 c 0.64608,0.547 0.8266,0.79291 0.58208,0.79291 -0.058,0 -0.36736,-0.30937 -0.6875,-0.6875 z m -1.60326,-3.28469 c 0,-0.42013 0.0694,-0.59201 0.15412,-0.38194 0.0848,0.21007 0.0848,0.55381 0,0.76388 -0.0848,0.21007 -0.15412,0.0382 -0.15412,-0.38194 z m 0.31687,-4.12496 c 0.006,-0.50417 0.0747,-0.67342 0.15218,-0.37613 0.0775,0.29729 0.0724,0.70979 -0.0113,0.91666 -0.0837,0.20687 -0.14708,-0.0364 -0.14086,-0.54053 z m 15.14526,-24.50756 c 0.38008,-0.0731 0.93007,-0.0703 1.22221,0.006 0.29213,0.0765 -0.0189,0.13628 -0.69106,0.13288 -0.67222,-0.003 -0.91124,-0.066 -0.53115,-0.13905 z m 15.16866,-45.69322 -0.58208,-0.68749 0.6875,0.58207 c 0.64607,0.54701 0.82659,0.79292 0.58207,0.79292 -0.058,0 -0.36735,-0.30938 -0.68749,-0.6875 z m 3.19836,-3.2083 c -0.38007,-0.48463 -0.36926,-0.49543 0.11536,-0.11537 0.50898,0.39917 0.67084,0.65008 0.41935,0.65008 -0.0634,0 -0.30407,-0.24062 -0.53471,-0.53471 z m -13.46264,-0.89622 c 0.22057,-0.0883 0.4841,-0.0774 0.58564,0.0241 0.10153,0.10153 -0.0789,0.17375 -0.40104,0.16048 -0.35595,-0.0147 -0.42835,-0.0871 -0.1846,-0.1846 z m 23.24033,-7.04816 c -0.38007,-0.48462 -0.36926,-0.49543 0.11536,-0.11536 0.50898,0.39916 0.67084,0.65008 0.41936,0.65008 -0.0634,0 -0.30407,-0.24062 -0.53472,-0.53472 z m -47.93283,-0.19175 c 0,-0.0634 0.24063,-0.30407 0.53472,-0.53472 0.48463,-0.38006 0.49543,-0.36926 0.11536,0.11537 -0.39916,0.50897 -0.65008,0.67083 -0.65008,0.41935 z m 1.22222,-1.22221 c 0,-0.0634 0.24062,-0.30407 0.53471,-0.53472 0.48463,-0.38007 0.49543,-0.36926 0.11537,0.11537 -0.39917,0.50897 -0.65008,0.67083 -0.65008,0.41935 z m 44.87729,-0.41935 c -0.38007,-0.48463 -0.36926,-0.49544 0.11537,-0.11537 0.50897,0.39917 0.67083,0.65008 0.41935,0.65008 -0.0635,0 -0.30407,-0.24062 -0.53472,-0.53471 z M 156.205,228.63952 c 0,-0.0635 0.24062,-0.30407 0.53472,-0.53472 0.48462,-0.38007 0.49543,-0.36926 0.11536,0.11536 -0.39917,0.50898 -0.65008,0.67084 -0.65008,0.41936 z" id="path5893" inkscape:connector-curvature="0"/>
            <path style="fill:#ffff00" d="m 198.52407,327.44846 c 0.30418,-0.33611 0.6218,-0.6111 0.70582,-0.6111 0.084,0 -0.0961,0.27499 -0.40026,0.6111 -0.30418,0.33611 -0.6218,0.61111 -0.70583,0.61111 -0.084,0 0.0961,-0.275 0.40027,-0.61111 z m -23.73764,-1.73649 c 0.22057,-0.0883 0.48411,-0.0774 0.58565,0.0241 0.10153,0.10153 -0.0789,0.17375 -0.40104,0.16048 -0.35595,-0.0147 -0.42836,-0.0871 -0.18461,-0.1846 z m 33.99779,-21.96932 c 0.0147,-0.35595 0.0871,-0.42835 0.1846,-0.1846 0.0883,0.22057 0.0774,0.48411 -0.0241,0.58564 -0.10153,0.10153 -0.17375,-0.0789 -0.16048,-0.40104 z m -22.70786,-12.56553 c 0.38008,-0.0731 0.93007,-0.0703 1.22221,0.006 0.29213,0.0765 -0.0189,0.13628 -0.69106,0.13288 -0.67222,-0.003 -0.91123,-0.066 -0.53115,-0.13905 z m 3.05196,-54.37467 c 0.21007,-0.0848 0.55382,-0.0848 0.76388,0 0.21007,0.0848 0.0382,0.15411 -0.38194,0.15411 -0.42013,0 -0.59201,-0.0693 -0.38194,-0.15411 z m -30.63167,-10.49199 c 0.30417,-0.33611 0.62179,-0.61111 0.70582,-0.61111 0.084,0 -0.0961,0.275 -0.40027,0.61111 -0.30418,0.33611 -0.62179,0.61111 -0.70582,0.61111 -0.084,0 0.0961,-0.275 0.40027,-0.61111 z" id="path5891" inkscape:connector-curvature="0"/>
            <path style="fill:#ffff00" d="m 167.53458,304.04821 c 0.0147,-0.35596 0.0871,-0.42836 0.1846,-0.18461 0.0883,0.22057 0.0774,0.48411 -0.0241,0.58564 -0.10153,0.10154 -0.17375,-0.0789 -0.16048,-0.40103 z m 42.51861,-5.62727 c 0,-0.58819 0.0629,-0.82881 0.13974,-0.53472 0.0769,0.2941 0.0769,0.77534 0,1.06944 -0.0768,0.29409 -0.13974,0.0535 -0.13974,-0.53472 z m -21.68875,-7.24657 c 0.46215,-0.07 1.21839,-0.07 1.68054,0 0.46215,0.07 0.084,0.12729 -0.84027,0.12729 -0.9243,0 -1.30242,-0.0573 -0.84027,-0.12729 z m 39.0585,-40.29237 c 0.0147,-0.35595 0.0871,-0.42835 0.18461,-0.1846 0.0883,0.22057 0.0774,0.48411 -0.0241,0.58564 -0.10153,0.10153 -0.17375,-0.0789 -0.16049,-0.40104 z m -9.41304,-1.96063 c 0,-0.75624 0.0596,-1.06561 0.13242,-0.68749 0.0728,0.37812 0.0728,0.99686 0,1.37499 -0.0728,0.37812 -0.13242,0.0687 -0.13242,-0.6875 z m 0.35589,-22.07619 -0.89744,-0.99305 0.99305,0.89744 c 0.92566,0.83653 1.13349,1.08865 0.89743,1.08865 -0.0526,0 -0.49945,-0.44687 -0.99304,-0.99304 z m -25.55174,-12.0489 c 0.22057,-0.0883 0.48411,-0.0774 0.58565,0.0241 0.10153,0.10153 -0.0789,0.17375 -0.40104,0.16048 -0.35595,-0.0147 -0.42836,-0.0871 -0.18461,-0.1846 z" id="path5889" inkscape:connector-curvature="0"/>
            <path style="fill:#ffff00" d="m 166.00681,308.6315 c 0.0147,-0.35596 0.0871,-0.42836 0.18461,-0.18461 0.0883,0.22057 0.0774,0.48411 -0.0241,0.58565 -0.10154,0.10153 -0.17375,-0.0789 -0.16049,-0.40104 z m 0,-9.77769 c 0.0147,-0.35596 0.0871,-0.42836 0.18461,-0.18461 0.0883,0.22057 0.0774,0.48411 -0.0241,0.58564 -0.10154,0.10154 -0.17375,-0.0789 -0.16049,-0.40103 z m 25.26038,-7.67623 c 0.37812,-0.0728 0.99687,-0.0728 1.37499,0 0.37812,0.0728 0.0687,0.13242 -0.68749,0.13242 -0.75625,0 -1.06562,-0.0596 -0.6875,-0.13242 z m -42.37134,-39.68447 c 0.0147,-0.35595 0.0871,-0.42835 0.18461,-0.18461 0.0883,0.22057 0.0774,0.48411 -0.0241,0.58565 -0.10153,0.10153 -0.17374,-0.0789 -0.16048,-0.40104 z m 69.05495,-0.91666 c 0.0147,-0.35595 0.0871,-0.42835 0.18461,-0.1846 0.0883,0.22057 0.0774,0.4841 -0.0241,0.58564 -0.10154,0.10153 -0.17375,-0.0789 -0.16048,-0.40104 z m 9.53958,-1.65508 c 0,-0.92429 0.0573,-1.30242 0.12729,-0.84027 0.07,0.46215 0.07,1.21839 0,1.68054 -0.07,0.46215 -0.12729,0.084 -0.12729,-0.84027 z m -69.36884,-0.6111 c 0,-0.75625 0.0596,-1.06562 0.13242,-0.6875 0.0728,0.37812 0.0728,0.99687 0,1.37499 -0.0728,0.37812 -0.13242,0.0687 -0.13242,-0.68749 z m 59.82926,-1.0949 c 0.0147,-0.35595 0.0871,-0.42835 0.18461,-0.18461 0.0883,0.22057 0.0774,0.48411 -0.0241,0.58565 -0.10154,0.10153 -0.17375,-0.0789 -0.16048,-0.40104 z" id="path5887" inkscape:connector-curvature="0"/>
            <path style="fill:#ffff00" d="m 196.69076,329.28178 c 0.30417,-0.33611 0.62179,-0.61111 0.70582,-0.61111 0.084,0 -0.0961,0.275 -0.40027,0.61111 -0.30418,0.33611 -0.6218,0.61111 -0.70582,0.61111 -0.084,0 0.0961,-0.275 0.40027,-0.61111 z m 9.16658,-6.11106 c 0.30418,-0.33611 0.6218,-0.6111 0.70582,-0.6111 0.084,0 -0.0961,0.27499 -0.40027,0.6111 -0.30417,0.33611 -0.62179,0.61111 -0.70582,0.61111 -0.084,0 0.0961,-0.275 0.40027,-0.61111 z m 1.70467,-3.84487 c 0.0147,-0.35595 0.0871,-0.42836 0.1846,-0.18461 0.0883,0.22057 0.0774,0.48412 -0.0241,0.58565 -0.10153,0.10153 -0.17375,-0.0789 -0.16048,-0.40104 z m -0.0241,-5.13153 c 0,-0.0634 0.24063,-0.30407 0.53472,-0.53471 0.48462,-0.38007 0.49543,-0.36926 0.11536,0.11536 -0.39916,0.50898 -0.65008,0.67084 -0.65008,0.41935 z m 2.49267,-4.77348 c 0,-0.42013 0.0693,-0.59201 0.15412,-0.38194 0.0848,0.21007 0.0848,0.55382 0,0.76388 -0.0848,0.21007 -0.15412,0.0382 -0.15412,-0.38194 z m -30.66082,-17.93079 c 0.22057,-0.0883 0.48411,-0.0774 0.58564,0.0241 0.10153,0.10153 -0.0789,0.17375 -0.40104,0.16048 -0.35595,-0.0147 -0.42835,-0.0871 -0.1846,-0.1846 z m 14.49466,-0.31568 c 0.46215,-0.07 1.21839,-0.07 1.68054,0 0.46215,0.07 0.084,0.12729 -0.84027,0.12729 -0.9243,0 -1.30242,-0.0573 -0.84027,-0.12729 z m -44.96854,-40.59792 c 0.0147,-0.35595 0.0871,-0.42835 0.18461,-0.1846 0.0883,0.22057 0.0774,0.4841 -0.0241,0.58564 -0.10153,0.10153 -0.17374,-0.0789 -0.16048,-0.40104 z m 9.16659,-0.6111 c 0.0147,-0.35596 0.0871,-0.42836 0.1846,-0.18461 0.0883,0.22057 0.0774,0.48411 -0.0241,0.58564 -0.10153,0.10154 -0.17375,-0.0789 -0.16048,-0.40103 z m 0.0241,-3.4884 c 0,-0.42014 0.0694,-0.59201 0.15412,-0.38194 0.0848,0.21007 0.0848,0.55381 0,0.76388 -0.0848,0.21007 -0.15412,0.0382 -0.15412,-0.38194 z m -9.16658,-0.61111 c 0,-0.42013 0.0693,-0.59201 0.15411,-0.38194 0.0848,0.21007 0.0848,0.55382 0,0.76388 -0.0848,0.21007 -0.15411,0.0382 -0.15411,-0.38194 z m 62.40828,-12.60405 -0.58207,-0.6875 0.68749,0.58208 c 0.64607,0.547 0.8266,0.79291 0.58208,0.79291 -0.058,0 -0.36736,-0.30937 -0.6875,-0.68749 z m -26.45858,-18.46551 c 0.22057,-0.0883 0.48411,-0.0774 0.58564,0.0241 0.10153,0.10153 -0.0789,0.17375 -0.40104,0.16048 -0.35595,-0.0147 -0.42835,-0.0871 -0.1846,-0.1846 z m 6.41661,0 c 0.22057,-0.0883 0.48411,-0.0774 0.58564,0.0241 0.10153,0.10153 -0.0789,0.17375 -0.40104,0.16048 -0.35595,-0.0147 -0.42835,-0.0871 -0.1846,-0.1846 z" id="path5885" inkscape:connector-curvature="0"/>
            <path style="fill:#ffff00" d="m 179.40389,329.35817 -0.74075,-0.84027 0.84027,0.74075 c 0.78536,0.69235 0.98039,0.93979 0.74075,0.93979 -0.0547,0 -0.43285,-0.37812 -0.84027,-0.84027 z m -9.18243,-6.41661 c -0.38007,-0.48463 -0.36926,-0.49544 0.11536,-0.11537 0.50897,0.39917 0.67083,0.65008 0.41935,0.65008 -0.0634,0 -0.30407,-0.24062 -0.53471,-0.53471 z m 36.72944,-7.28235 c 0.0147,-0.35595 0.0871,-0.42835 0.1846,-0.1846 0.0883,0.22057 0.0774,0.48411 -0.0241,0.58564 -0.10153,0.10154 -0.17375,-0.0789 -0.16048,-0.40104 z m -26.3745,-24.17654 c 0.38008,-0.0731 0.93008,-0.0703 1.22222,0.006 0.29213,0.0765 -0.0189,0.13628 -0.69106,0.13289 -0.67222,-0.003 -0.91124,-0.066 -0.53116,-0.13905 z m 15.65603,-0.2066 c 0,-0.0644 0.33958,-0.18208 0.75463,-0.26142 0.41505,-0.0793 0.68193,-0.0266 0.59307,0.11716 -0.15646,0.25317 -1.3477,0.38068 -1.3477,0.14426 z M 148.9313,249.3797 c 0.006,-0.50416 0.0747,-0.67342 0.15218,-0.37612 0.0775,0.29729 0.0724,0.70979 -0.0113,0.91665 -0.0837,0.20687 -0.14708,-0.0364 -0.14085,-0.54053 z m 50.33353,-4.04857 -0.74076,-0.84027 0.84027,0.74075 c 0.78536,0.69235 0.9804,0.93979 0.74076,0.93979 -0.0547,0 -0.43285,-0.37813 -0.84027,-0.84027 z m 2.59129,-3.20831 -0.58207,-0.68749 0.68749,0.58207 c 0.64608,0.54701 0.8266,0.79291 0.58208,0.79291 -0.058,0 -0.36736,-0.30937 -0.6875,-0.68749 z m 10.69435,-7.63882 -0.58207,-0.6875 0.68749,0.58208 c 0.64608,0.54701 0.8266,0.79291 0.58208,0.79291 -0.058,0 -0.36736,-0.30937 -0.6875,-0.68749 z m -48.70665,-0.34453 c 0,-0.0634 0.24062,-0.30407 0.53472,-0.53472 0.48462,-0.38006 0.49543,-0.36926 0.11536,0.11537 -0.39916,0.50897 -0.65008,0.67083 -0.65008,0.41935 z m 1.98609,-2.02351 c 0.30418,-0.3361 0.6218,-0.6111 0.70582,-0.6111 0.084,0 -0.0961,0.275 -0.40026,0.6111 -0.30418,0.33611 -0.62179,0.61111 -0.70582,0.61111 -0.084,0 0.0961,-0.275 0.40026,-0.61111 z m 44.27614,-0.0764 -0.58207,-0.6875 0.68749,0.58208 c 0.64607,0.547 0.82659,0.79291 0.58208,0.79291 -0.058,0 -0.36736,-0.30937 -0.6875,-0.68749 z m -53.5955,-3.40006 c 0,-0.0635 0.24062,-0.30407 0.53472,-0.53472 0.48462,-0.38007 0.49543,-0.36926 0.11536,0.11536 -0.39916,0.50898 -0.65008,0.67084 -0.65008,0.41936 z m 2.74998,-2.74998 c 0,-0.0635 0.24062,-0.30407 0.53472,-0.53471 0.48462,-0.38007 0.49543,-0.36926 0.11536,0.11536 -0.39917,0.50897 -0.65008,0.67083 -0.65008,0.41935 z m 57.40496,-0.41935 c -0.38007,-0.48462 -0.36926,-0.49543 0.11537,-0.11536 0.50897,0.39916 0.67083,0.65008 0.41935,0.65008 -0.0634,0 -0.30407,-0.24063 -0.53472,-0.53472 z m -29.68285,-1.51913 c 0.54242,-0.0675 1.50492,-0.0686 2.13887,-0.002 0.63395,0.0661 0.19014,0.12137 -0.98624,0.12272 -1.17637,0.001 -1.69506,-0.0528 -1.15263,-0.12026 z m -0.14597,-9.17065 c 0.79826,-0.0629 2.1045,-0.0629 2.90276,0 0.79825,0.0629 0.14513,0.11444 -1.45138,0.11444 -1.59651,0 -2.24963,-0.0515 -1.45138,-0.11444 z" id="path5883" inkscape:connector-curvature="0"/>
            <path style="fill:#ffff00" d="m 185.28886,332.79233 c -2.88967,-0.80552 -4.74162,-2.22605 -7.88787,-6.05035 -0.35807,-0.43523 -1.04556,-0.87308 -1.52776,-0.97298 -2.70103,-0.5596 -3.36706,-0.89825 -5.14056,-2.61376 l -1.84723,-1.78683 0.0949,-3.45876 c 0.0924,-3.36922 0.0747,-3.4777 -0.68437,-4.19079 -0.95713,-0.89918 -2.00768,-3.61002 -2.00768,-5.18063 0,-0.65611 0.33377,-1.79296 0.76389,-2.60191 0.93934,-1.76665 0.93934,-1.78382 0,-4.09555 -1.2519,-3.08093 -0.94422,-4.70835 1.53847,-8.13761 1.24721,-1.72273 1.24529,-2.28378 -0.0205,-6.00549 -1.61422,-4.74599 -4.11087,-8.7013 -10.49314,-16.62371 -3.17517,-3.9414 -6.2745,-8.65157 -7.06259,-10.73329 -1.28663,-3.39862 -1.84557,-6.96008 -1.86408,-11.87763 -0.0209,-5.5661 0.51374,-8.00052 2.75156,-12.52766 3.5415,-7.16452 9.30451,-12.72405 17.40491,-16.79036 2.95661,-1.48419 8.82538,-3.43297 11.50438,-3.82013 3.27257,-0.47294 12.47252,-0.39389 15.49472,0.13314 12.13415,2.11602 24.52944,11.24108 28.62131,21.07021 1.87001,4.49197 2.3117,6.86067 2.31093,12.39313 -6.1e-4,4.30841 -0.10521,5.44156 -0.71933,7.7916 -1.35787,5.1961 -2.93622,7.91856 -8.59148,14.81932 -5.46484,6.66838 -8.82617,12.11641 -10.3619,16.79445 -0.99614,3.03441 -0.88075,3.95508 0.73264,5.84522 0.77486,0.90776 1.45655,2.06125 1.56741,2.65221 0.271,1.44456 -0.0479,4.15424 -0.62498,5.31111 -0.62779,1.25844 -0.60607,1.93555 0.13078,4.07726 0.65993,1.91812 0.78468,3.9342 0.31919,5.15853 -0.16056,0.42229 -0.79926,1.32936 -1.41933,2.01572 -1.21266,1.34226 -1.24577,1.53029 -0.87366,4.96184 0.27675,2.55216 -0.081,3.51057 -1.9123,5.12251 -1.27679,1.12388 -2.83148,1.87282 -4.72507,2.27622 -0.46954,0.10002 -1.70927,1.09433 -2.90275,2.32811 -2.26619,2.34271 -4.14576,3.68696 -6.13805,4.38988 -2.00561,0.70762 -4.59292,0.83919 -6.43037,0.32698 z m 12.02398,-41.53794 c 0.17409,-0.0535 0.49319,-1.1487 0.70911,-2.4337 1.14852,-6.83528 4.86075,-13.5606 12.57867,-22.78836 3.73903,-4.4705 5.4128,-6.94375 6.40822,-9.46913 0.89223,-2.26361 1.33083,-5.84919 1.13331,-9.26487 -0.32698,-5.65442 -1.98284,-9.23467 -6.32653,-13.67905 -6.97281,-7.13444 -16.55908,-10.49704 -27.01493,-9.47608 -4.54263,0.44357 -7.26153,1.23118 -11.63751,3.37118 -6.48673,3.17222 -10.07187,6.59203 -12.99231,12.39318 -1.85247,3.67975 -2.26593,5.67815 -2.02297,9.77769 0.22103,3.72934 0.72709,5.67593 2.30535,8.86747 1.354,2.73807 2.34015,4.11303 6.13153,8.54905 3.77805,4.42043 5.23281,6.38465 6.9597,9.39706 2.69081,4.69389 4.68037,10.01104 5.12433,13.69489 l 0.16845,1.39771 9.07952,-0.11985 c 4.99374,-0.0659 9.22196,-0.16366 9.39606,-0.21719 z m 4.46564,-40.90248 c -0.18385,-0.22153 -0.49118,-1.13438 -0.68295,-2.02856 -0.74506,-3.4741 -5.32857,-6.37166 -11.10349,-7.01929 -2.63544,-0.29555 -3.53731,-0.85287 -3.53731,-2.18591 0,-1.76622 1.7619,-2.40135 5.06557,-1.82604 7.01556,1.22171 12.15468,5.13921 13.55271,10.33111 0.35539,1.31981 0.10092,2.3543 -0.71279,2.89763 -0.55598,0.37123 -2.22402,0.26209 -2.58174,-0.16894 z" id="path5881" inkscape:connector-curvature="0"/>
        </g>
        <path style="fill:none;stroke:#ffeb3b;stroke-width:5.34717512;stroke-linecap:round;stroke-linejoin:round;stroke-miterlimit:4;stroke-opacity:1;stroke-dasharray:none;marker-end:none" d="m 117.92359,249.24422 c 17.6446,0.43035 17.6446,0.43035 17.6446,0.43035 l -0.43036,0 0,0" id="path5387" inkscape:connector-curvature="0"/>
        <path inkscape:connector-curvature="0" id="path6018" d="m 242.95949,247.5834 c 17.6446,0.43035 17.6446,0.43035 17.6446,0.43035 l -0.43036,0 0,0" style="fill:none;stroke:#ffeb3b;stroke-width:5.34717512;stroke-linecap:round;stroke-linejoin:round;stroke-miterlimit:4;stroke-opacity:1;stroke-dasharray:none;marker-end:none"/>
        <path style="fill:none;stroke:#ffeb3b;stroke-width:5.34717512;stroke-linecap:round;stroke-linejoin:round;stroke-miterlimit:4;stroke-opacity:1;stroke-dasharray:none;marker-end:none" d="m 225.27694,208.87725 c 11.79332,-13.13143 11.79332,-13.13143 11.79332,-13.13143 l -0.27965,0.3271 0,0" id="path6020" inkscape:connector-curvature="0"/>
        <path inkscape:connector-curvature="0" id="path6022" d="m 155.15653,210.6078 c -9.77702,-14.69445 -9.77702,-14.69445 -9.77702,-14.69445 l 0.24705,0.35238 0,0" style="fill:none;stroke:#ffeb3b;stroke-width:5.34717512;stroke-linecap:round;stroke-linejoin:round;stroke-miterlimit:4;stroke-opacity:1;stroke-dasharray:none;marker-end:none"/>
        <path inkscape:connector-curvature="0" id="path5969" d="m 132.10787,290.8824 c 13.47652,-11.39741 13.47652,-11.39741 13.47652,-11.39741 l -0.32173,0.28584 0,0" style="fill:none;stroke:#ffeb3b;stroke-width:5.34717512;stroke-linecap:round;stroke-linejoin:round;stroke-miterlimit:4;stroke-opacity:1;stroke-dasharray:none;marker-end:none"/>
        <path style="fill:none;stroke:#ffeb3b;stroke-width:5.34717512;stroke-linecap:round;stroke-linejoin:round;stroke-miterlimit:4;stroke-opacity:1;stroke-dasharray:none;marker-end:none" d="m 237.69677,276.17086 c 13.25606,11.65309 13.25606,11.65309 13.25606,11.65309 l -0.33006,-0.27618 0,0" id="path6016" inkscape:connector-curvature="0"/>
    </g>
</svg>